<?xml version="1.0"?>
<svg xmlns="http://www.w3.org/2000/svg" xmlns:xlink="http://www.w3.org/1999/xlink" xmlns:svgjs="http://svgjs.com/svgjs" version="1.1" width="512" height="512" x="0" y="0" viewBox="0 0 512 512" style="enable-background:new 0 0 512 512" xml:space="preserve" class=""><g>
<g xmlns="http://www.w3.org/2000/svg">
	<path d="M420.94,179.879c0.002,0.377,0.06,0.743,0.06,1.121c0,115.796-100.928,210-225,210h-63.832   c26.71,70.695,98.853,121,183.832,121h181c6.167,0,11.704-3.779,13.96-9.521s0.762-12.275-3.765-16.479l-41.03-38.057   C495.843,415.525,512,373.905,512,331C512,268.843,475.922,212.476,420.94,179.879z" fill="#ffffff" data-original="#000000" style="" class=""/>
	<path d="M4.805,334.999c-4.526,4.204-6.021,10.737-3.765,16.479S8.833,361,15,361h181c107.52,0,195-80.742,195-180S303.52,0,196,0   S0,81.742,0,181c0,42.905,16.157,83.525,45.835,115.942L4.805,334.999z M106,91h180c8.291,0,15,6.709,15,15s-6.709,15-15,15H106   c-8.291,0-15-6.709-15-15S97.709,91,106,91z M106,151h180c8.291,0,15,6.709,15,15s-6.709,15-15,15H106c-8.291,0-15-6.709-15-15   S97.709,151,106,151z M106,211h180c8.291,0,15,6.709,15,15s-6.709,15-15,15H106c-8.291,0-15-6.709-15-15S97.709,211,106,211z" fill="#ffffff" data-original="#000000" style="" class=""/>
</g>















</g></svg>
